<svg xmlns="http://www.w3.org/2000/svg" viewBox="0 0 1200 760" role="img" aria-labelledby="title desc"><title id="title">Address to property API pipeline</title><desc id="desc">Address, parcel and building stages flowing into a structured API response.</desc><defs><linearGradient id="bg" x1="0" y1="0" x2="1" y2="1"><stop stop-color="#07131f"/><stop offset="1" stop-color="#030811"/></linearGradient><filter id="glow"><feGaussianBlur stdDeviation="6" result="b"/><feMerge><feMergeNode in="b"/><feMergeNode in="SourceGraphic"/></feMerge></filter></defs><rect width="1200" height="760" fill="url(#bg)"/><g opacity=".08" stroke="#52d9ff"><path d="M0 120h1200M0 240h1200M0 360h1200M0 480h1200M0 600h1200M160 0v760M320 0v760M480 0v760M640 0v760M800 0v760M960 0v760"/></g><g transform="translate(75 210)"><rect width="250" height="300" rx="24" fill="#0a1a2a" stroke="#52d9ff" stroke-opacity=".22"/><path d="M40 74L100 30l89 18 24 73-53 105-63 35-42-58 4-73Z" fill="#52d9ff" fill-opacity=".08" stroke="#52d9ff" stroke-opacity=".7" stroke-width="2"/><path d="M129 122c22 0 40 18 40 40 0 35-40 76-40 76s-40-41-40-76c0-22 18-40 40-40Z" fill="#7cf3c8" fill-opacity=".12" stroke="#7cf3c8" stroke-width="2"/><circle cx="129" cy="162" r="10" fill="#7cf3c8" filter="url(#glow)"/><text x="35" y="275" fill="#8aa4b8" font-family="system-ui,sans-serif" font-size="14">ADDRESS / AADRESS</text></g><g transform="translate(400 210)"><rect width="250" height="300" rx="24" fill="#0a1a2a" stroke="#52d9ff" stroke-opacity=".22"/><path d="M34 66l164-22 26 76-47 106-135 25-22-91Z" fill="#52d9ff" fill-opacity=".08" stroke="#52d9ff" stroke-opacity=".72" stroke-width="2"/><path d="M72 110l88-18 35 46-36 68-72 6-30-50Z" fill="#7cf3c8" fill-opacity=".13" stroke="#7cf3c8" stroke-width="2"/><circle cx="129" cy="153" r="8" fill="#7cf3c8" filter="url(#glow)"/><text x="35" y="275" fill="#8aa4b8" font-family="system-ui,sans-serif" font-size="14">PARCEL / KATASTRIÜKSUS</text></g><g transform="translate(725 210)"><rect width="250" height="300" rx="24" fill="#0a1a2a" stroke="#52d9ff" stroke-opacity=".22"/><path d="M72 76l95-29 50 30-96 32Z" fill="#244962" stroke="#8adfff" stroke-opacity=".55"/><path d="M72 76v123l49 36V109Z" fill="#10283b" stroke="#52d9ff" stroke-opacity=".42"/><path d="M121 109v126l96-36V77Z" fill="#0b2032" stroke="#52d9ff" stroke-opacity=".38"/><g fill="#7edfff" opacity=".5"><path d="M88 103l15 9v18l-15-9zm0 35l15 9v18l-15-9zm51-12l18-7v19l-18 7zm29-11l18-7v19l-18 7zm-29 42l18-7v19l-18 7zm29-11l18-7v19l-18 7z"/></g><text x="35" y="275" fill="#8aa4b8" font-family="system-ui,sans-serif" font-size="14">BUILDING / HOONE</text></g><g fill="none" stroke="#52d9ff" stroke-opacity=".45" stroke-width="2"><path d="M326 360h68"/><path d="M651 360h68"/><path d="M976 360h66"/></g><g fill="#7cf3c8" filter="url(#glow)"><path d="M384 352l16 8-16 8Z"/><path d="M709 352l16 8-16 8Z"/><path d="M1031 352l16 8-16 8Z"/></g><g transform="translate(1040 235)"><rect width="110" height="250" rx="20" fill="#061420" stroke="#7cf3c8" stroke-opacity=".25"/><text x="26" y="72" fill="#52d9ff" font-family="ui-monospace,monospace" font-size="40" font-weight="700">{ }</text><g stroke="#7cf3c8" stroke-opacity=".48"><path d="M22 112h66M22 136h54M22 160h70M22 184h46"/></g><text x="23" y="224" fill="#7f98aa" font-family="system-ui,sans-serif" font-size="12">JSON API</text></g></svg>